<svg xmlns="http://www.w3.org/2000/svg" xmlns:xlink="http://www.w3.org/1999/xlink" version="1.1" x="0px" y="0px" viewBox="0 0 100 125" enable-background="new 0 0 100 100" xml:space="preserve"><path d="M83.1,69.7c-3-3-7.6-3.6-11.2-1.7l-2.3-2.3c3-3.7,4.8-8.2,5.4-12.9h3.3c1.2,3.9,4.8,6.7,9.1,6.7c5.2,0,9.5-4.3,9.5-9.5  c0-5.2-4.3-9.5-9.5-9.5c-4.3,0-7.9,2.8-9.1,6.7H75c-0.5-4.8-2.4-9.2-5.4-12.9l2.3-2.3c1.4,0.7,2.9,1.1,4.5,1.1c2.5,0,4.9-1,6.7-2.8  c1.8-1.8,2.8-4.2,2.8-6.7c0-2.5-1-4.9-2.8-6.7c-1.8-1.8-4.2-2.8-6.7-2.8s-4.9,1-6.7,2.8c-1.8,1.8-2.8,4.2-2.8,6.7  c0,1.6,0.4,3.1,1.1,4.5l-2.3,2.3c-3.7-3-8.2-4.8-12.9-5.4v-3.3c3.9-1.2,6.7-4.8,6.7-9.1c0-5.2-4.3-9.5-9.5-9.5  c-5.2,0-9.5,4.3-9.5,9.5c0,4.3,2.8,7.9,6.7,9.1V25c-4.8,0.5-9.2,2.4-12.9,5.4L32,28.1c0.7-1.4,1.1-2.9,1.1-4.5c0-2.5-1-4.9-2.8-6.7  c-1.8-1.8-4.2-2.8-6.7-2.8c-2.5,0-4.9,1-6.7,2.8c-1.8,1.8-2.8,4.2-2.8,6.7c0,2.5,1,4.9,2.8,6.7c1.8,1.8,4.2,2.8,6.7,2.8  c1.6,0,3.1-0.4,4.5-1.1l2.3,2.3c-3,3.7-4.8,8.2-5.4,12.9h-3.3c-1.2-3.9-4.8-6.7-9.1-6.7c-5.2,0-9.5,4.3-9.5,9.5  c0,5.2,4.3,9.5,9.5,9.5c4.3,0,7.9-2.8,9.1-6.7H25c0.5,4.8,2.4,9.2,5.4,12.9L28.1,68c-3.6-1.9-8.2-1.3-11.2,1.7  c-3.7,3.7-3.7,9.7,0,13.4c1.8,1.8,4.2,2.8,6.7,2.8c2.5,0,4.9-1,6.7-2.8c1.8-1.8,2.8-4.2,2.8-6.7c0-1.6-0.4-3.1-1.1-4.5l2.3-2.3  c3.7,3,8.2,4.8,12.9,5.4v3.3c-3.9,1.2-6.7,4.8-6.7,9.1c0,5.2,4.3,9.5,9.5,9.5c5.2,0,9.5-4.3,9.5-9.5c0-4.3-2.8-7.9-6.7-9.1V75  c4.8-0.5,9.2-2.4,12.9-5.4l2.3,2.3c-0.7,1.4-1.1,2.9-1.1,4.5c0,2.5,1,4.9,2.8,6.7c1.8,1.8,4.2,2.8,6.7,2.8s4.9-1,6.7-2.8  C86.8,79.4,86.8,73.4,83.1,69.7z M87.3,46.1c2.2,0,3.9,1.8,3.9,3.9c0,2.2-1.8,3.9-3.9,3.9c-2.2,0-3.9-1.8-3.9-3.9  C83.4,47.8,85.2,46.1,87.3,46.1z M73.6,20.8c0.7-0.7,1.7-1.2,2.8-1.2c1.1,0,2,0.4,2.8,1.2c0.7,0.7,1.2,1.7,1.2,2.8  c0,1.1-0.4,2-1.2,2.8c-0.7,0.7-1.7,1.2-2.8,1.2c-1.1,0-2-0.4-2.8-1.2c-0.7-0.7-1.2-1.7-1.2-2.8C72.5,22.5,72.9,21.6,73.6,20.8z   M26.4,26.4c-0.7,0.7-1.7,1.2-2.8,1.2c-1.1,0-2-0.4-2.8-1.2c-0.7-0.7-1.2-1.7-1.2-2.8c0-1.1,0.4-2,1.2-2.8c0.8-0.8,1.8-1.2,2.8-1.2  c1,0,2,0.4,2.8,1.2c0.7,0.7,1.2,1.7,1.2,2.8C27.5,24.6,27.1,25.6,26.4,26.4z M12.7,53.9c-2.2,0-3.9-1.8-3.9-3.9  c0-2.2,1.8-3.9,3.9-3.9c2.2,0,3.9,1.8,3.9,3.9C16.6,52.2,14.8,53.9,12.7,53.9z M26.4,79.2c-0.7,0.7-1.7,1.2-2.8,1.2  c-1.1,0-2-0.4-2.8-1.2c-1.5-1.5-1.5-4,0-5.6c0.8-0.8,1.8-1.2,2.8-1.2c1,0,2,0.4,2.8,1.2c0.7,0.7,1.2,1.7,1.2,2.8  C27.5,77.5,27.1,78.4,26.4,79.2z M46.1,12.7c0-2.2,1.8-3.9,3.9-3.9c2.2,0,3.9,1.8,3.9,3.9s-1.8,3.9-3.9,3.9  C47.8,16.6,46.1,14.8,46.1,12.7z M53.9,87.3c0,2.2-1.8,3.9-3.9,3.9c-2.2,0-3.9-1.8-3.9-3.9c0-2.2,1.8-3.9,3.9-3.9  C52.2,83.4,53.9,85.2,53.9,87.3z M63.2,64.4l0-0.1c-0.1-2.1-0.5-3.5-2.6-4.8c-1.7-1.1-3.5-2-4.6-2.6l2.2,5.5l-2.9-0.4l-3.5,5.1  l-1.7,2.5c0,0,0,0-0.1,0L54,57v-2.3c0,0,4.4,0.1,6.5-2c0,0-3-0.9-2.5-6.4c0.5-5.5-0.7-10.4-5.1-10c0,0-1.9-2.3-5.8-0.9  c-1.3,0.5-4.8,1.8-4.7,9.4c0.2,7.7-2.7,7.7-2.7,7.7s1.5,2.2,6.6,2.1V57l3.6,12.6c0,0-0.1,0-0.1,0l-1.7-2.5l-3.5-5.1l-2.9,0.4  l2.2-5.5c-1.2,0.6-3,1.6-4.6,2.6c-2.1,1.3-2.5,2.8-2.6,4.8l0,0.1c-3.9-3.6-6.4-8.7-6.4-14.4c0-10.8,8.8-19.6,19.6-19.6  c10.8,0,19.6,8.8,19.6,19.6C69.6,55.7,67.1,60.9,63.2,64.4z M79.2,79.2c-0.7,0.7-1.7,1.2-2.8,1.2c-1.1,0-2-0.4-2.8-1.2  c-0.7-0.7-1.2-1.7-1.2-2.8c0-1.1,0.4-2,1.2-2.8c0.8-0.8,1.8-1.2,2.8-1.2c1,0,2,0.4,2.8,1.2C80.7,75.2,80.7,77.7,79.2,79.2z"/><text x="0" y="115" fill="#000000" font-size="5px" font-weight="bold" font-family="'Helvetica Neue', Helvetica, Arial-Unicode, Arial, Sans-serif">Created by Gregor Cresnar</text><text x="0" y="120" fill="#000000" font-size="5px" font-weight="bold" font-family="'Helvetica Neue', Helvetica, Arial-Unicode, Arial, Sans-serif">from the Noun Project</text></svg>